<?xml version="1.0" encoding="utf-8"?>
<!-- Generator: Adobe Illustrator 26.0.2, SVG Export Plug-In . SVG Version: 6.00 Build 0)  -->
<svg version="1.1" id="Layer_1" xmlns="http://www.w3.org/2000/svg" xmlns:xlink="http://www.w3.org/1999/xlink" x="0px" y="0px"
	 viewBox="0 0 168 48" style="enable-background:new 0 0 168 48;" xml:space="preserve">
<style type="text/css">
	.st0{fill:#243570;}
</style>
<g>
	<path class="st0" d="M11.9,27.5c0,2.5-2.1,4.4-5.5,4.4c-3.5,0-5.4-2.1-5.6-2.4l1-1.9c1.2,1.3,2.9,2.1,4.6,2.1
		c2.2,0,3.4-0.9,3.4-2.3c0-1.2-1.3-1.9-3.3-2.2c-4-0.7-5.2-2.1-5.2-4.1c0-2.4,1.8-4.2,5.2-4.2c0.6,0,2.9,0.1,4.7,1.7l-1,1.9
		c-0.8-0.7-1.9-1.5-3.7-1.5c-2,0-3.1,0.8-3.1,2.1c0,1.1,1,1.6,3.3,2.1C10.2,24,11.9,25.1,11.9,27.5z"/>
	<path class="st0" d="M12.6,22.2v-1.6h7.5v1.6H12.6z M15.6,31.8v-8.8h1.6v8.8H15.6z"/>
	<path class="st0" d="M30.4,20.6v6.3c0,3-1.3,5.1-4.3,5.1c-3,0-4.3-2.1-4.3-5.1v-6.3h1.6v6.8c0,1.7,1,3,2.7,3c1.7,0,2.7-1.2,2.7-3
		v-6.8H30.4z"/>
	<path class="st0" d="M41.7,26.2c0,3.1-2.1,5.6-5.8,5.6h-3.4v-1.6h3.8c2.2,0,3.7-1.8,3.7-4c0-2.2-1.5-4-3.7-4h-3.8v-1.6h3.4
		C39.7,20.6,41.7,23.1,41.7,26.2z"/>
	<path class="st0" d="M49.7,20.6v1.6h-6.4v-1.6H49.7z M43.3,27v-1.6h5.6V27H43.3z M44.9,30.2h4.8v1.6h-6.4v-1.6L44.9,30.2L44.9,30.2
		z"/>
	<path class="st0" d="M61.2,20.6v11.5l-9.4-9.6v-2.2l7.8,8v-7.7H61.2z M51.8,23.9l1.6,1.6v6.3h-1.6V23.9z"/>
	<path class="st0" d="M63,22.2v-1.6h7.5v1.6H63z M66,31.8v-8.8h1.6v8.8H66z"/>
	<path class="st0" d="M80.4,28.5c0,2-1.6,3.4-4.3,3.4c-2.7,0-4.2-1.6-4.3-1.8l0.8-1.4c0.9,1,2.2,1.7,3.6,1.7c1.7,0,2.6-0.7,2.6-1.8
		c0-0.9-1-1.5-2.6-1.7c-3.1-0.5-4-1.7-4-3.2c0-1.8,1.4-3.3,4.1-3.3c0.5,0,2.2,0.1,3.6,1.3l-0.8,1.5c-0.6-0.6-1.5-1.2-2.9-1.2
		c-1.5,0-2.4,0.6-2.4,1.6c0,0.9,0.8,1.3,2.6,1.6C79.1,25.8,80.4,26.6,80.4,28.5z"/>
	<path class="st0" d="M100.7,17.3v14.9L88.6,19.8v-2.9l10,10.3v-9.9H100.7z M88.6,21.5l2.1,2.1v8.2h-2.1V21.5z"/>
	<path class="st0" d="M109.4,20.6v1.6H103v-1.6H109.4z M103,27v-1.6h5.6V27H103z M104.6,30.2h4.8v1.6H103v-1.6L104.6,30.2
		L104.6,30.2z"/>
	<path class="st0" d="M110.3,22.2v-1.6h7.5v1.6H110.3z M113.3,31.8v-8.8h1.6v8.8H113.3z"/>
	<path class="st0" d="M120.4,20.6l3.8,9.4l-0.8,2.1l-4.7-11.5H120.4z M126.4,20.3l3.9,9.8l-0.8,2l-3.1-7.8l-1.7,4.3l-0.8-2
		L126.4,20.3z M134.2,20.6l-3.3,8.1l-0.8-2.1l2.4-6H134.2z"/>
	<path class="st0" d="M140.4,20.5v1.6c-2.1,0.2-3.7,2-3.7,4.1s1.6,3.9,3.7,4.1V32c-3-0.2-5.3-2.7-5.3-5.8
		C135.1,23.2,137.5,20.7,140.4,20.5z M146.7,26.2c0,3-2.3,5.5-5.3,5.8v-1.6c2.1-0.2,3.7-2,3.7-4.1s-1.6-3.9-3.7-4.1v-1.6
		C144.3,20.7,146.7,23.2,146.7,26.2z"/>
	<path class="st0" d="M156.9,31.8H155l-2.8-3.9h-1.8v3.9h-1.6v-5.5h4c1.2,0,2.2-0.6,2.2-2.1c0-1.5-1-2.1-2.1-2.1h-4v-1.6h3.5
		c2.9,0,4.3,1.5,4.3,3.6c0,1.7-1,3.2-2.6,3.6L156.9,31.8z"/>
	<path class="st0" d="M167.6,31.8h-2.1l-4.6-5v5h-1.6V20.6h1.6v5l4.3-5h2.1l-5,5.5L167.6,31.8z"/>
</g>
</svg>
