<svg version="1.1" id="Layer_1" xmlns="http://www.w3.org/2000/svg" x="0" y="0" viewBox="0 0 168 48" style="enable-background:new 0 0 168 48" xml:space="preserve"><style>.st0{fill:#243570}</style><path class="st0" d="M11.9 27.5c0 2.5-2.1 4.4-5.5 4.4-3.5 0-5.4-2.1-5.6-2.4l1-1.9c1.2 1.3 2.9 2.1 4.6 2.1 2.2 0 3.4-.9 3.4-2.3 0-1.2-1.3-1.9-3.3-2.2-4-.7-5.2-2.1-5.2-4.1 0-2.4 1.8-4.2 5.2-4.2.6 0 2.9.1 4.7 1.7l-1 1.9c-.8-.7-1.9-1.5-3.7-1.5-2 0-3.1.8-3.1 2.1 0 1.1 1 1.6 3.3 2.1 3.5.8 5.2 1.9 5.2 4.3zM12.6 22.2v-1.6h7.5v1.6h-7.5zm3 9.6V23h1.6v8.8h-1.6zM30.4 20.6v6.3c0 3-1.3 5.1-4.3 5.1s-4.3-2.1-4.3-5.1v-6.3h1.6v6.8c0 1.7 1 3 2.7 3s2.7-1.2 2.7-3v-6.8h1.6zM41.7 26.2c0 3.1-2.1 5.6-5.8 5.6h-3.4v-1.6h3.8c2.2 0 3.7-1.8 3.7-4s-1.5-4-3.7-4h-3.8v-1.6h3.4c3.8 0 5.8 2.5 5.8 5.6zM49.7 20.6v1.6h-6.4v-1.6h6.4zM43.3 27v-1.6h5.6V27h-5.6zm1.6 3.2h4.8v1.6h-6.4v-1.6h1.6zM61.2 20.6v11.5l-9.4-9.6v-2.2l7.8 8v-7.7h1.6zm-9.4 3.3 1.6 1.6v6.3h-1.6v-7.9zM63 22.2v-1.6h7.5v1.6H63zm3 9.6V23h1.6v8.8H66zM80.4 28.5c0 2-1.6 3.4-4.3 3.4-2.7 0-4.2-1.6-4.3-1.8l.8-1.4c.9 1 2.2 1.7 3.6 1.7 1.7 0 2.6-.7 2.6-1.8 0-.9-1-1.5-2.6-1.7-3.1-.5-4-1.7-4-3.2 0-1.8 1.4-3.3 4.1-3.3.5 0 2.2.1 3.6 1.3l-.8 1.5c-.6-.6-1.5-1.2-2.9-1.2-1.5 0-2.4.6-2.4 1.6 0 .9.8 1.3 2.6 1.6 2.7.6 4 1.4 4 3.3zM100.7 17.3v14.9L88.6 19.8v-2.9l10 10.3v-9.9h2.1zm-12.1 4.2 2.1 2.1v8.2h-2.1V21.5zM109.4 20.6v1.6H103v-1.6h6.4zM103 27v-1.6h5.6V27H103zm1.6 3.2h4.8v1.6H103v-1.6h1.6zM110.3 22.2v-1.6h7.5v1.6h-7.5zm3 9.6V23h1.6v8.8h-1.6zM120.4 20.6l3.8 9.4-.8 2.1-4.7-11.5h1.7zm6-.3 3.9 9.8-.8 2-3.1-7.8-1.7 4.3-.8-2 2.5-6.3zm7.8.3-3.3 8.1-.8-2.1 2.4-6h1.7zM140.4 20.5v1.6c-2.1.2-3.7 2-3.7 4.1s1.6 3.9 3.7 4.1V32c-3-.2-5.3-2.7-5.3-5.8 0-3 2.4-5.5 5.3-5.7zm6.3 5.7c0 3-2.3 5.5-5.3 5.8v-1.6c2.1-.2 3.7-2 3.7-4.1s-1.6-3.9-3.7-4.1v-1.6c2.9.1 5.3 2.6 5.3 5.6zM156.9 31.8H155l-2.8-3.9h-1.8v3.9h-1.6v-5.5h4c1.2 0 2.2-.6 2.2-2.1s-1-2.1-2.1-2.1h-4v-1.6h3.5c2.9 0 4.3 1.5 4.3 3.6 0 1.7-1 3.2-2.6 3.6l2.8 4.1zM167.6 31.8h-2.1l-4.6-5v5h-1.6V20.6h1.6v5l4.3-5h2.1l-5 5.5 5.3 5.7z"/></svg>