<?xml version="1.0" encoding="utf-8"?>
<!-- Generator: Adobe Illustrator 26.0.2, SVG Export Plug-In . SVG Version: 6.00 Build 0)  -->
<svg version="1.1" id="Layer_1" xmlns="http://www.w3.org/2000/svg" xmlns:xlink="http://www.w3.org/1999/xlink" x="0px" y="0px"
	 viewBox="0 0 168 48" style="enable-background:new 0 0 168 48;" xml:space="preserve">
<style type="text/css">
	.st0{fill:#FFFFFF;}
	.st1{fill:#F4F4F4;}
	.st2{fill:none;stroke:#FFFFFF;stroke-width:8.838436e-02;stroke-miterlimit:10;}
</style>
<path class="st0" d="M19.3,16.6c0,3.7-3.1,6.5-8.1,6.5c-5.2,0-8-3.1-8.3-3.6l1.5-2.8c1.8,1.9,4.3,3.1,6.8,3.1c3.3,0,5-1.3,5-3.4
	c0-1.8-1.9-2.8-4.9-3.3c-5.9-1-7.7-3.1-7.7-6.1c0-3.6,2.7-6.2,7.7-6.2c0.9,0,4.3,0.1,7,2.5l-1.5,2.8C15.6,5.1,14,4,11.3,4
	c-3,0-4.6,1.2-4.6,3.1c0,1.6,1.5,2.4,4.9,3.1C16.8,11.4,19.3,13,19.3,16.6z M20.4,8.7V6.3h11.1v2.4H20.4z M24.8,22.9v-13h2.4v13
	C27.2,22.9,24.8,22.9,24.8,22.9z M46.7,6.3v9.3c0,4.4-1.9,7.6-6.4,7.6S34,20.1,34,15.7V6.3h2.4v10.1c0,2.5,1.5,4.4,4,4.4
	c2.5,0,4-1.8,4-4.4V6.3C44.4,6.3,46.7,6.3,46.7,6.3z M63.5,14.6c0,4.6-3.1,8.3-8.6,8.3h-5v-2.4h5.6c3.3,0,5.5-2.7,5.5-5.9
	s-2.2-5.9-5.5-5.9h-5.6V6.3h5C60.5,6.3,63.5,10,63.5,14.6z M75.3,6.3v2.4h-9.5V6.3H75.3z M65.8,15.8v-2.4h8.3v2.4H65.8z M68.2,20.5
	h7.1v2.4h-9.5v-2.4C65.8,20.5,68.2,20.5,68.2,20.5z M92.3,6.3v17L78.4,9.1V5.9L90,17.7V6.3C90,6.3,92.3,6.3,92.3,6.3z M78.4,11.2
	l2.4,2.4v9.3h-2.4V11.2z M95,8.7V6.3h11.1v2.4H95z M99.5,22.9v-13h2.4v13C101.8,22.9,99.5,22.9,99.5,22.9z M120.8,18
	c0,3-2.4,5-6.4,5c-4,0-6.2-2.4-6.4-2.7l1.2-2.1c1.3,1.5,3.3,2.5,5.3,2.5c2.5,0,3.9-1,3.9-2.7c0-1.3-1.5-2.2-3.9-2.5
	c-4.6-0.7-5.9-2.5-5.9-4.7c0-2.7,2.1-4.9,6.1-4.9c0.7,0,3.3,0.1,5.3,1.9l-1.2,2.2c-0.9-0.9-2.2-1.8-4.3-1.8c-2.2,0-3.6,0.9-3.6,2.4
	c0,1.3,1.2,1.9,3.9,2.4C118.9,14,120.8,15.2,120.8,18L120.8,18z M45.9,24v23.2L27,27.9v-4.5l15.6,16V24C42.6,24,45.9,24,45.9,24z
	 M27,30.5l3.3,3.3v12.8H27V30.5z M59.4,29.1v2.5h-10v-2.5H59.4z M49.5,39.1v-2.5h8.7v2.5H49.5z M51.9,44.1h7.5v2.5h-10v-2.5H51.9z
	 M60.8,31.6v-2.5h11.7v2.5H60.8z M65.5,46.6V32.9H68v13.7C68,46.6,65.5,46.6,65.5,46.6z M76.6,29.1l5.9,14.6L81.2,47l-7.3-17.9
	C73.9,29.1,76.6,29.1,76.6,29.1z M85.9,28.7L92,43.9L90.7,47l-4.8-12.1l-2.6,6.7L82,38.5C82,38.5,85.9,28.7,85.9,28.7z M98,29.1
	l-5.1,12.6l-1.2-3.3l3.7-9.3H98L98,29.1z M107.7,29v2.5c-3.3,0.3-5.8,3.1-5.8,6.4c0,3.3,2.5,6.1,5.8,6.4v2.6c-4.7-0.3-8.3-4.2-8.3-9
	C99.4,33.2,103.2,29.3,107.7,29z M117.5,37.8c0,4.7-3.6,8.6-8.3,9v-2.5c3.3-0.3,5.8-3.1,5.8-6.4s-2.5-6.1-5.8-6.4v-2.5
	C113.8,29.3,117.5,33.2,117.5,37.8z M133.4,46.6h-3l-4.4-6.1h-2.8v6.1h-2.5V38h6.2c1.9,0,3.4-0.9,3.4-3.3c0-2.3-1.6-3.3-3.3-3.3
	h-6.2V29h5.5c4.5,0,6.7,2.3,6.7,5.6c0,2.6-1.6,5-4,5.6L133.4,46.6L133.4,46.6z M150.1,46.6h-3.3l-7.2-7.8v7.8h-2.5V29.1h2.5v7.8
	l6.7-7.8h3.3l-7.8,8.6L150.1,46.6z"/>
<rect x="315.2" y="-9.4" class="st1" width="30.6" height="30.6"/>
<g>
	<polyline class="st2" points="133.7,5.1 138.2,11.2 145.4,12.4 150.5,17 140.9,15.3 134.5,17.4 	"/>
	<polyline class="st2" points="134.2,17 138.4,10.9 132.2,11.4 141.1,15.2 137.9,21 	"/>
	<polyline class="st2" points="139.4,23.4 141.1,15.2 145.4,12.4 146.7,21.2 	"/>
	<polyline class="st2" points="146.4,21.2 140.8,15.1 138.5,10.9 	"/>
	<polyline class="st2" points="146.7,21.2 138.1,21.2 134.3,17.2 132.1,11.4 133.7,4.7 138.7,1.1 146,1.1 151,4.7 152.7,11.4 
		150.5,17.2 146.7,21.2 	"/>
	<polyline class="st2" points="145.5,23.4 139.1,23.4 138.1,21.2 	"/>
	<line class="st2" x1="145.5" y1="23.4" x2="146.7" y2="21.2"/>
	<circle class="st0" cx="132.1" cy="11.4" r="0.4"/>
	<circle class="st0" cx="133.7" cy="4.7" r="0.4"/>
	<circle class="st0" cx="151.1" cy="4.7" r="0.4"/>
	<circle class="st0" cx="146" cy="1.1" r="0.4"/>
	<circle class="st0" cx="138.7" cy="1.1" r="0.4"/>
	<circle class="st0" cx="152.7" cy="11.4" r="0.4"/>
	<circle class="st0" cx="134.2" cy="17.3" r="0.4"/>
	<circle class="st0" cx="141" cy="15.2" r="0.4"/>
	<circle class="st0" cx="138.4" cy="10.9" r="0.4"/>
	<circle class="st0" cx="145.4" cy="12.4" r="0.4"/>
	<circle class="st0" cx="150.5" cy="17.3" r="0.4"/>
	<circle class="st0" cx="138.1" cy="21.2" r="0.4"/>
	<circle class="st0" cx="146.7" cy="21.2" r="0.4"/>
	<circle class="st0" cx="139.1" cy="23.4" r="0.4"/>
	<circle class="st0" cx="139.1" cy="25.9" r="0.4"/>
	<path class="st0" d="M141.3,27.8c0.3,0.4-0.2,0.9-0.6,0.6C140.4,28,140.9,27.5,141.3,27.8z"/>
	<g>
		<path class="st0" d="M143.4,27.8c-0.3,0.4,0.2,0.9,0.6,0.6C144.3,28,143.8,27.5,143.4,27.8z"/>
	</g>
	<circle class="st0" cx="145.5" cy="23.4" r="0.4"/>
	<circle class="st0" cx="145.5" cy="25.9" r="0.4"/>
</g>
</svg>
